<svg xmlns="http://www.w3.org/2000/svg" viewBox="0 0 310 310"><defs><style>.cls-1{fill:#6298f4;}.cls-2{fill:#fff;}</style></defs><title>dolasci1</title><g id="Layer_2" data-name="Layer 2"><g id="icons"><circle class="cls-1" cx="155" cy="155" r="155"/><path class="cls-2" d="M243.4785,222.64871v13.75H66.5215v-13.75ZM75.52,118.72191s18.5689,19.8794,38.813,27.5782c20.2446,7.6992,83.5605,31.7778,97.8906,37.228,14.3301,5.4492,24.1206,9.1724,26.5777,2.7129,2.2934-6.0308-6.835-23.7998-25.6915-30.9712-2.08339-.7925-14.9785-5.6963-31.58439-12.0112L160.3291,82.65991a9.46022,9.46022,0,0,0-4.8838-5.0166l-10.0098-3.8066a2.46792,2.46792,0,0,0-3.5835,2.4888l.33841,51.9741c-14.311-5.4429-27.74121-10.5503-36.87791-14.0249-.1489-.0567-.3125-.1167-.4702-.1758L91.9287,87.48021a8.72241,8.72241,0,0,0-4.3906-4.5029l-4.1612-1.582c-1.9848-.7549-2.8706.6997-3.0732,2.8139L78.1665,106.636a4.37963,4.37963,0,0,0,.0322.9815c-3.73-.1832-6.48529.3735-7.1675,2.1669C69.77541,113.08721,75.52,118.72191,75.52,118.72191Zm130.5405,75.5279a5.6597,5.6597,0,1,0,5.6597-5.6597A5.65932,5.65932,0,0,0,206.0605,194.24981Zm-79.25-30.2217a5.6597,5.6597,0,1,0,5.6597-5.6597A5.6594,5.6594,0,0,0,126.8105,164.02811Zm14.4751,5.4683a5.6597,5.6597,0,1,0,5.6597-5.6597A5.65938,5.65938,0,0,0,141.2856,169.49641Z"/></g></g></svg>