<svg xmlns="http://www.w3.org/2000/svg" viewBox="0 0 310 310"><defs><style>.cls-1{fill:#6298f4;}.cls-2{fill:#fff;}</style></defs><title>odlasci1</title><g id="Layer_2" data-name="Layer 2"><g id="icons"><circle class="cls-1" cx="155" cy="155" r="155"/><path class="cls-2" d="M66.52192,211.26244h176.957v13.75H66.52192Zm180.92819-107.6919c-2.63769-5.8882-21.6523-12.0137-40.0634-3.7661-2.0342.9111-14.6246,6.5513-30.8379,13.8144l-57.815-27.9091a9.46213,9.46213,0,0,0-7.0005-.0996l-9.7734,4.3784a2.46762,2.46762,0,0,0-.7773,4.2929l36.95989,36.5425c-13.97309,6.2593-27.08589,12.1338-36.00679,16.1299-.1455.0649-.3037.1382-.4566.208l-27.9458-9.7143a8.72239,8.72239,0,0,0-6.2885-.0845l-4.063,1.8203c-1.938.8682-1.5371,2.5234-.1866,4.1626l14.3326,17.3813a4.35054,4.35054,0,0,0,.7163.6719c-2.7691,2.5059-4.3257,4.8462-3.5415,6.5977,1.4448,3.2246,9.4912,3.1533,9.4912,3.1533s27.1865.9492,46.95209-7.9053c19.7666-8.855,81.5869-36.5488,95.5786-42.8164C240.71581,114.16034,250.27531,109.87814,247.45011,103.57054Z"/></g></g></svg>